<!-- Generator: Adobe Illustrator 19.2.0, SVG Export Plug-In  -->
<svg version="1.1"
	 xmlns="http://www.w3.org/2000/svg" xmlns:xlink="http://www.w3.org/1999/xlink" xmlns:a="http://ns.adobe.com/AdobeSVGViewerExtensions/3.0/"
	 x="0px" y="0px" width="900px" height="102px" viewBox="0 0 900 102" enable-background="new 0 0 900 102" xml:space="preserve">
<defs>
</defs>
<path fill="#FFFFFF" d="M0,0v102h900V0H0z M879.9,31.5c5.2,0,9.4,4.4,9.4,9.8s-4.2,9.8-9.4,9.8c-5.2,0-9.4-4.4-9.4-9.8
	S874.7,31.5,879.9,31.5z M844.1,31.5c5.2,0,9.4,4.4,9.4,9.8s-4.2,9.8-9.4,9.8c-5.2,0-9.4-4.4-9.4-9.8S838.9,31.5,844.1,31.5z
	 M808.3,31.5c5.2,0,9.4,4.4,9.4,9.8s-4.2,9.8-9.4,9.8c-5.2,0-9.4-4.4-9.4-9.8S803.1,31.5,808.3,31.5z M772.5,31.5
	c5.2,0,9.4,4.4,9.4,9.8s-4.2,9.8-9.4,9.8c-5.2,0-9.4-4.4-9.4-9.8S767.3,31.5,772.5,31.5z M736.7,31.5c5.2,0,9.4,4.4,9.4,9.8
	s-4.2,9.8-9.4,9.8s-9.4-4.4-9.4-9.8S731.6,31.5,736.7,31.5z M701,31.5c5.2,0,9.4,4.4,9.4,9.8s-4.2,9.8-9.4,9.8
	c-5.2,0-9.4-4.4-9.4-9.8S695.8,31.5,701,31.5z M665.2,31.5c5.2,0,9.4,4.4,9.4,9.8s-4.2,9.8-9.4,9.8c-5.2,0-9.4-4.4-9.4-9.8
	S660,31.5,665.2,31.5z M629.4,31.5c5.2,0,9.4,4.4,9.4,9.8s-4.2,9.8-9.4,9.8c-5.2,0-9.4-4.4-9.4-9.8S624.2,31.5,629.4,31.5z
	 M593.6,31.5c5.2,0,9.4,4.4,9.4,9.8s-4.2,9.8-9.4,9.8c-5.2,0-9.4-4.4-9.4-9.8S588.4,31.5,593.6,31.5z M557.8,31.5
	c5.2,0,9.4,4.4,9.4,9.8s-4.2,9.8-9.4,9.8s-9.4-4.4-9.4-9.8S552.6,31.5,557.8,31.5z M522,31.5c5.2,0,9.4,4.4,9.4,9.8
	s-4.2,9.8-9.4,9.8c-5.2,0-9.4-4.4-9.4-9.8S516.9,31.5,522,31.5z M486.2,31.5c5.2,0,9.4,4.4,9.4,9.8s-4.2,9.8-9.4,9.8
	c-5.2,0-9.4-4.4-9.4-9.8S481.1,31.5,486.2,31.5z M450.5,31.5c5.2,0,9.4,4.4,9.4,9.8s-4.2,9.8-9.4,9.8c-5.2,0-9.4-4.4-9.4-9.8
	S445.3,31.5,450.5,31.5z M414.7,31.5c5.2,0,9.4,4.4,9.4,9.8s-4.2,9.8-9.4,9.8c-5.2,0-9.4-4.4-9.4-9.8S409.5,31.5,414.7,31.5z
	 M378.9,31.5c5.2,0,9.4,4.4,9.4,9.8s-4.2,9.8-9.4,9.8c-5.2,0-9.4-4.4-9.4-9.8S373.7,31.5,378.9,31.5z M343.1,31.5
	c5.2,0,9.4,4.4,9.4,9.8s-4.2,9.8-9.4,9.8c-5.2,0-9.4-4.4-9.4-9.8S337.9,31.5,343.1,31.5z M307.3,31.5c5.2,0,9.4,4.4,9.4,9.8
	s-4.2,9.8-9.4,9.8c-5.2,0-9.4-4.4-9.4-9.8S302.1,31.5,307.3,31.5z M271.5,31.5c5.2,0,9.4,4.4,9.4,9.8s-4.2,9.8-9.4,9.8
	c-5.2,0-9.4-4.4-9.4-9.8S266.4,31.5,271.5,31.5z M235.7,31.5c5.2,0,9.4,4.4,9.4,9.8s-4.2,9.8-9.4,9.8c-5.2,0-9.4-4.4-9.4-9.8
	S230.6,31.5,235.7,31.5z M200,31.5c5.2,0,9.4,4.4,9.4,9.8s-4.2,9.8-9.4,9.8c-5.2,0-9.4-4.4-9.4-9.8S194.8,31.5,200,31.5z
	 M164.2,31.5c5.2,0,9.4,4.4,9.4,9.8s-4.2,9.8-9.4,9.8c-5.2,0-9.4-4.4-9.4-9.8S159,31.5,164.2,31.5z M128.4,31.5
	c5.2,0,9.4,4.4,9.4,9.8s-4.2,9.8-9.4,9.8c-5.2,0-9.4-4.4-9.4-9.8S123.2,31.5,128.4,31.5z M92.6,31.5c5.2,0,9.4,4.4,9.4,9.8
	s-4.2,9.8-9.4,9.8c-5.2,0-9.4-4.4-9.4-9.8S87.4,31.5,92.6,31.5z M56.8,31.5c5.2,0,9.4,4.4,9.4,9.8s-4.2,9.8-9.4,9.8
	s-9.4-4.4-9.4-9.8S51.6,31.5,56.8,31.5z M21,31.5c5.2,0,9.4,4.4,9.4,9.8s-4.2,9.8-9.4,9.8c-5.2,0-9.4-4.4-9.4-9.8S15.9,31.5,21,31.5
	z M37.1,69.8c-1.5,0.6-6-0.8-7.5-1.4C28.3,68.2,27,67,27,65.7v-0.1c0-1.6,2-2.5,3.5-2.5h0.1c0.3,0,0.3-0.3,0.3-0.2v-4.7
	c0,0-5.6,0-9.7,2.7l0.3,9.2h-1.2l-0.2-9.2C16.2,58.1,10,58.1,10,58.1v4.7c0-0.1,1.1,0.2,1.4,0.2h0.1c1.6,0,2.5,0.9,2.5,2.5v0.1
	c0,1.1-0.3,2.1-1.2,3.3h0c-0.2,0-0.4-0.2-0.6-0.2c-1.6,0.6-5.9,1.7-7.3,1.1c-1.8-0.7-2-3.7-1.3-7.2C5,54.3,14.9,51.5,16.2,51.2
	c2.8,2.2,6.8,2.2,9.6,0c1.3,0.3,11.4,3,12.8,11.5C39.4,66.2,38.9,69.1,37.1,69.8z M73,69.8c-1.5,0.6-5.9-0.8-7.5-1.4
	C64.2,68.2,63,67,63,65.7v-0.1c0-1.6,1.7-2.5,3.3-2.5h0.1c0.3,0,0.6-0.3,0.6-0.2v-4.7c0,0-5.8,0-9.8,2.7l0.2,9.2h-1.2l-0.1-9.2
	C52.1,58.1,46,58.1,46,58.1v4.7c0-0.1,0.9,0.2,1.2,0.2h0.1c1.6,0,2.7,0.9,2.7,2.5v0.1c0,1.1-0.5,2.1-1.4,3.3h0
	c-0.2,0-0.4-0.2-0.6-0.2c-1.6,0.6-5.9,1.7-7.3,1.1c-1.8-0.7-2-3.7-1.3-7.2c1.4-8.4,11.3-11.2,12.6-11.5c2.8,2.2,6.8,2.2,9.6,0
	c1.3,0.3,11.4,3,12.8,11.5C75.2,66.2,74.7,69.1,73,69.8z M108.8,69.8c-1.5,0.6-5.9-0.8-7.4-1.4c-1.3-0.3-2.4-1.5-2.4-2.8v-0.1
	c0-1.6,1.5-2.5,3.1-2.5h0.1c0.3,0,0.8-0.3,0.8-0.2v-4.7c0,0-5.9,0-9.9,2.7l0.1,9.2H92l0-9.2c-4.1-2.7-10-2.7-10-2.7v4.7
	c0-0.1,0.6,0.2,1,0.2h0.1c1.6,0,2.9,0.9,2.9,2.5v0.1c0,1.1-0.7,2.1-1.7,3.3h0c-0.2,0-0.4-0.2-0.6-0.2c-1.6,0.6-5.9,1.7-7.3,1.1
	c-1.8-0.7-2-3.7-1.3-7.2c1.4-8.4,11.3-11.2,12.6-11.5c2.8,2.2,6.8,2.2,9.6,0c1.3,0.3,11.4,3,12.8,11.5
	C111,66.2,110.6,69.1,108.8,69.8z M251.8,69.8c-1.5,0.6-5.8-0.8-7.4-1.4c-1.3-0.3-2.5-1.5-2.5-2.8v-0.1c0-1.6,1.7-2.5,3.2-2.5h0.1
	c0.3,0,0.6-0.3,0.6-0.2v-4.7c0,0-5.8,0-9.9,2.7l0.2,9.2h-1.2l0-9.2c-4.1-2.7-10.1-2.7-10.1-2.7v4.7c0-0.1,0.8,0.2,1.1,0.2h0.1
	c1.6,0,2.8,0.9,2.8,2.5v0.1c0,1.1-0.6,2.1-1.5,3.3h0c-0.2,0-0.4-0.2-0.6-0.2c-1.6,0.6-5.9,1.7-7.3,1.1c-1-0.4-1.5-1.6-1.6-3.1
	c-0.1,1.6-0.7,2.7-1.7,3.1c-1.5,0.6-5.7-0.8-7.3-1.4c-1.3-0.3-2.1-1.5-2.1-2.8v-0.1c0-1.6,0.9-2.5,2.5-2.5h0.1
	c0.3,0,0.4-0.3,1.4-0.2v-4.7c0,0-6.2,0-10.2,2.7l-0.2,9.2h-1.2l-0.2-9.2c-4.1-2.7-10.2-2.7-10.2-2.7v4.7c0-0.1,1,0.2,1.3,0.2h0.1
	c1.6,0,2.5,0.9,2.5,2.5v0.1c0,1.1-0.4,2.1-1.3,3.3h0c-0.2,0-0.4-0.2-0.6-0.2c-1.6,0.6-5.9,1.7-7.3,1.1c-1-0.4-1.5-1.7-1.6-3.3
	c-0.1,1.7-0.7,2.9-1.7,3.3c-1.5,0.6-5.8-0.8-7.3-1.4c-1.3-0.3-2.2-1.5-2.2-2.8v-0.1c0-1.6,1.1-2.5,2.7-2.5h0.1
	c0.3,0,1.2-0.3,1.2-0.2v-4.7c0,0-6.1,0-10.1,2.7l-0.1,9.2h-1.2l-0.3-9.2c-4.1-2.7-10.3-2.7-10.3-2.7v4.7c1.3-0.1,1.2,0.2,1.6,0.2
	h0.1c1.6,0,2.3,0.9,2.3,2.5v0.1c0,1.1-0.1,2.1-1.1,3.3h0c-0.2,0-0.4-0.2-0.6-0.2c-1.6,0.6-5.9,1.7-7.3,1.1c-1.1-0.4-1.6-1.8-1.7-3.5
	c-0.1,1.8-0.7,3-1.7,3.5c-1.5,0.6-5.8-0.8-7.4-1.4c-1.3-0.3-2.3-1.5-2.3-2.8v-0.1c0-1.6,1.3-2.5,2.9-2.5h0.1c0.3,0,1-0.3,1-0.2v-4.7
	c0,0-7-0.1-10,2.6V70h-1.2l-0.4-9.2c-4.1-2.7-10.4-2.7-10.4-2.7v4.7c1.3-0.1,1.4,0.2,1.8,0.2h0.1c1.6,0,3.1,0.9,3.1,2.5v0.1
	c0,1.1-0.9,2.1-1.9,3.3h0c-0.2,0-0.4-0.2-0.6-0.2c-1.6,0.6-5.9,1.7-7.3,1.1c-1.8-0.7-2-3.7-1.3-7.2c1.4-8.4,11.3-11.2,12.6-11.5
	c2.8,2.2,6.8,2.2,9.6,0c1.3,0.3,11.4,3,12.9,11.5c0.3,1.2,0.4,2.3,0.4,3.3c0-1,0.1-2.1,0.4-3.3c1.4-8.4,11.3-11.2,12.6-11.5
	c2.8,2.2,6.8,2.2,9.6,0c1.3,0.3,11.5,3,12.9,11.5c0.2,0.9,0.3,1.7,0.4,2.4c0.1-0.8,0.2-1.6,0.3-2.4c1.4-8.4,11.3-11.2,12.6-11.5
	c2.8,2.2,6.8,2.2,9.6,0c1.3,0.3,11.5,3,12.9,11.5c0.2,0.8,0.3,1.6,0.3,2.3c0.1-0.7,0.2-1.5,0.3-2.3c1.4-8.4,11.3-11.2,12.6-11.5
	c2.8,2.2,6.8,2.2,9.6,0c1.3,0.3,11.4,3,12.8,11.5C254.1,66.2,253.6,69.1,251.8,69.8z M287.7,69.8c-1.5,0.6-5.8-0.8-7.3-1.4
	c-1.3-0.3-2.3-1.5-2.3-2.8v-0.1c0-1.6,1.4-2.5,3-2.5h0.1c0.3,0,0.8-0.3,0.8-0.2v-4.7c0,0-5.9,0-10,2.7l0.1,9.2h-1.2l0.1-9.2
	c-4.1-2.7-10-2.7-10-2.7v4.7c0-0.1,0.6,0.2,0.9,0.2h0.1c1.6,0,3,0.9,3,2.5v0.1c0,1.1-0.8,2.1-1.7,3.3h0c-0.2,0-0.4-0.2-0.6-0.2
	c-1.6,0.6-5.9,1.7-7.3,1.1c-1.8-0.7-2-3.7-1.3-7.2c1.4-8.4,11.3-11.2,12.6-11.5c2.8,2.2,6.8,2.2,9.6,0c1.3,0.3,11.4,3,12.8,11.5
	C289.9,66.2,289.4,69.1,287.7,69.8z M323.5,69.8c-1.5,0.6-5.7-0.8-7.3-1.4c-1.3-0.3-2.2-1.5-2.2-2.8v-0.1c0-1.6,1.2-2.5,2.8-2.5h0.1
	c0.3,0,1.1-0.3,1.1-0.2v-4.7c0,0-6,0-10.1,2.7l0,9.2h-1.2l0.2-9.2c-4.1-2.7-9.9-2.7-9.9-2.7v4.7c0-0.1,0.3,0.2,0.7,0.2h0.1
	c1.6,0,3.2,0.9,3.2,2.5v0.1c0,1.1-1,2.1-1.9,3.3h0c-0.2,0-0.4-0.2-0.6-0.2c-1.6,0.6-5.9,1.7-7.3,1.1c-1.8-0.7-2-3.7-1.3-7.2
	c1.4-8.4,11.3-11.2,12.6-11.5c2.8,2.2,6.8,2.2,9.6,0c1.3,0.3,11.4,3,12.8,11.5C325.7,66.2,325.3,69.1,323.5,69.8z M466.6,69.8
	c-1.5,0.6-6.2-0.8-7.7-1.4c-1.3-0.3-2.8-1.5-2.8-2.8v-0.1c0-1.6,2.4-2.5,4-2.5h0.1c0.3,0-0.1-0.3-0.1-0.2v-4.7c0,0-5.4,0-9.5,2.7
	l0.6,9.2h-1.2l0.1-9.2c-4.1-2.7-10-2.7-10-2.7v4.7c0-0.1,0.5,0.2,0.8,0.2h0.1c1.6,0,3,0.9,3,2.5v0.1c0,1.1-0.9,2.1-1.8,3.3h0
	c-0.2,0-0.4-0.2-0.6-0.2c-1.6,0.6-5.9,1.7-7.3,1.1c-1-0.4-1.5-1.6-1.6-3.1c-0.1,1.6-0.7,2.7-1.7,3.1c-1.5,0.6-5.6-0.8-7.1-1.4
	c-1.3-0.3-1.9-1.5-1.9-2.8v-0.1c0-1.6,0.6-2.5,2.2-2.5h0.1c0.3,0-0.3-0.3,1.7-0.2v-4.7c0,0-6.3,0-10.4,2.7l-0.3,9.2h-1.2l0-9.2
	c-4.1-2.7-10.1-2.7-10.1-2.7v4.7c0-0.1,0.7,0.2,1,0.2h0.1c1.6,0,2.8,0.9,2.8,2.5v0.1c0,1.1-0.6,2.1-1.6,3.3h0
	c-0.2,0-0.4-0.2-0.6-0.2c-1.6,0.6-5.9,1.7-7.3,1.1c-1-0.4-1.5-1.7-1.6-3.3c-0.1,1.7-0.7,2.9-1.7,3.3c-1.5,0.6-5.6-0.8-7.2-1.4
	c-1.3-0.3-2-1.5-2-2.8v-0.1c0-1.6,0.8-2.5,2.4-2.5h0.1c0.3,0,1.5-0.3,1.5-0.2v-4.7c0,0-6.2,0-10.3,2.7l-0.2,9.2h-1.2l-0.1-9.2
	c-4.1-2.7-10.2-2.7-10.2-2.7v4.7c1-0.1,0.9,0.2,1.3,0.2h0.1c1.6,0,2.6,0.9,2.6,2.5v0.1c0,1.1-0.4,2.1-1.4,3.3h0
	c-0.2,0-0.4-0.2-0.6-0.2c-1.6,0.6-5.9,1.7-7.3,1.1c-1.1-0.4-1.6-1.8-1.7-3.5c-0.1,1.8-0.7,3-1.7,3.5c-1.5,0.6-5.7-0.8-7.2-1.4
	c-1.3-0.3-2.1-1.5-2.1-2.8v-0.1c0-1.6,1-2.5,2.6-2.5h0.1c0.3,0,1.3-0.3,1.3-0.2v-4.7c0,0-7-0.1-11,2.6V70h-0.5l-0.2-9.2
	c-4.1-2.7-10.3-2.7-10.3-2.7v4.7c1-0.1,1.1,0.2,1.5,0.2h0.1c1.6,0,3.4,0.9,3.4,2.5v0.1c0,1.1-1.2,2.1-2.2,3.3h0
	c-0.2,0-0.4-0.2-0.6-0.2c-1.6,0.6-5.9,1.7-7.3,1.1c-1.8-0.7-2-3.7-1.3-7.2c1.4-8.4,11.3-11.2,12.6-11.5c2.8,2.2,6.8,2.2,9.6,0
	c1.3,0.3,11.4,3,12.9,11.5c0.3,1.2,0.4,2.3,0.4,3.2c0-1,0.1-2.1,0.4-3.2c1.4-8.4,11.3-11.2,12.6-11.5c2.8,2.2,6.8,2.2,9.6,0
	c1.3,0.3,11.5,3,12.9,11.5c0.2,0.9,0.3,1.7,0.4,2.4c0.1-0.8,0.2-1.6,0.3-2.4c1.4-8.4,11.3-11.2,12.6-11.5c2.8,2.2,6.8,2.2,9.6,0
	c1.3,0.3,11.5,3,12.9,11.5c0.2,0.8,0.3,1.6,0.3,2.3c0.1-0.7,0.2-1.5,0.3-2.3c1.4-8.4,11.3-11.2,12.6-11.5c2.8,2.2,6.8,2.2,9.6,0
	c1.3,0.3,11.4,3,12.8,11.5C468.8,66.2,468.3,69.1,466.6,69.8z M502.4,69.8c-1.5,0.6-6.1-0.8-7.7-1.4c-1.3-0.3-2.7-1.5-2.7-2.8v-0.1
	c0-1.6,2.2-2.5,3.7-2.5h0.1c0.3,0,0.1-0.3,0.1-0.2v-4.7c0,0-5.5,0-9.6,2.7l0.4,9.2h-1.2l0.2-9.2c-4.1-2.7-9.8-2.7-9.8-2.7v4.7
	c0-0.1,0.3,0.2,0.6,0.2h0.1c1.6,0,3.3,0.9,3.3,2.5v0.1c0,1.1-1.1,2.1-2,3.3h0c-0.2,0-0.4-0.2-0.6-0.2c-1.6,0.6-5.9,1.7-7.3,1.1
	c-1.8-0.7-2-3.7-1.3-7.2c1.4-8.4,11.3-11.2,12.6-11.5c2.8,2.2,6.8,2.2,9.6,0c1.3,0.3,11.4,3,12.8,11.5
	C504.6,66.2,504.1,69.1,502.4,69.8z M538.2,69.8c-1.5,0.6-6.1-0.8-7.6-1.4c-1.3-0.3-2.6-1.5-2.6-2.8v-0.1c0-1.6,1.9-2.5,3.5-2.5h0.1
	c0.3,0,0.3-0.3,0.3-0.2v-4.7c0,0-5.6,0-9.7,2.7l0.3,9.2h-1.2l0.3-9.2c-4.1-2.7-9.7-2.7-9.7-2.7v4.7c0-0.1,0.1,0.2,0.4,0.2h0.1
	c1.6,0,3.5,0.9,3.5,2.5v0.1c0,1.1-1.3,2.1-2.2,3.3h0c-0.2,0-0.4-0.2-0.6-0.2c-1.6,0.6-5.9,1.7-7.3,1.1c-1.8-0.7-2-3.7-1.3-7.2
	c1.4-8.4,11.3-11.2,12.6-11.5c2.8,2.2,6.8,2.2,9.6,0c1.3,0.3,11.4,3,12.8,11.5C540.4,66.2,540,69.1,538.2,69.8z M681.3,69.8
	c-1.5,0.6-6.1-0.8-7.6-1.4c-1.3-0.3-2.7-1.5-2.7-2.8v-0.1c0-1.6,2.1-2.5,3.7-2.5h0.1c0.3,0,0.2-0.3,0.2-0.2v-4.7c0,0-5.6,0-9.6,2.7
	l0.4,9.2h-1.2l-0.3-9.2c-4.1-2.7-10.3-2.7-10.3-2.7v4.7c0-0.1,1.2,0.2,1.5,0.2h0.1c1.6,0,2.3,0.9,2.3,2.5v0.1c0,1.1-0.1,2.1-1.1,3.3
	h0c-0.2,0-0.4-0.2-0.6-0.2c-1.6,0.6-5.9,1.7-7.3,1.1c-1-0.4-1.5-1.6-1.6-3.1c-0.1,1.6-0.7,2.7-1.7,3.1c-1.5,0.6-5.9-0.8-7.5-1.4
	c-1.3-0.3-2.3-1.5-2.3-2.8v-0.1c0-1.6,1.3-2.5,2.9-2.5h0.1c0.3,0,0-0.3,1-0.2v-4.7c0,0-6,0-10,2.7l0,9.2h-1.2l-0.4-9.2
	c-4.1-2.7-10.4-2.7-10.4-2.7v4.7c0-0.1,1.4,0.2,1.8,0.2h0.1c1.6,0,2.1,0.9,2.1,2.5v0.1c0,1.1,0.1,2.1-0.9,3.3h0
	c-0.2,0-0.4-0.2-0.6-0.2c-1.6,0.6-5.9,1.7-7.3,1.1c-1-0.4-1.5-1.7-1.6-3.3c-0.1,1.7-0.7,2.9-1.7,3.3c-1.5,0.6-6-0.8-7.5-1.4
	c-1.3-0.3-2.4-1.5-2.4-2.8v-0.1c0-1.6,1.5-2.5,3.1-2.5h0.1c0.3,0,0.8-0.3,0.8-0.2v-4.7c0,0-5.9,0-9.9,2.7l0.1,9.2H593l-0.5-9.2
	c-4.1-2.7-10.5-2.7-10.5-2.7v4.7c2-0.1,1.6,0.2,2,0.2h0.1c1.6,0,1.9,0.9,1.9,2.5v0.1c0,1.1,0.3,2.1-0.7,3.3h0
	c-0.2,0-0.4-0.2-0.6-0.2c-1.6,0.6-5.9,1.7-7.3,1.1c-1.1-0.4-1.6-1.8-1.7-3.5c-0.1,1.8-0.7,3-1.7,3.5c-1.5,0.6-6-0.8-7.6-1.4
	c-1.3-0.3-2.5-1.5-2.5-2.8v-0.1c0-1.6,1.7-2.5,3.3-2.5h0.1c0.3,0,0.6-0.3,0.6-0.2v-4.7c0,0-5.8,0-9.8,2.7l0.2,9.2h-1.2l-0.6-9.2
	c-4.1-2.7-10.6-2.7-10.6-2.7v4.7c2-0.1,1.8,0.2,2.2,0.2h0.1c1.6,0,3.7,0.9,3.7,2.5v0.1c0,1.1-1.5,2.1-2.4,3.3h0
	c-0.2,0-0.4-0.2-0.6-0.2c-1.6,0.6-5.9,1.7-7.3,1.1c-1.8-0.7-2-3.7-1.3-7.2c1.4-8.4,11.3-11.2,12.6-11.5c2.8,2.2,6.8,2.2,9.6,0
	c1.3,0.3,11.4,3,12.9,11.5c0.3,1.2,0.4,2.2,0.4,3.2c0-1,0.1-2.1,0.4-3.2c1.4-8.4,11.3-11.2,12.6-11.5c2.8,2.2,6.8,2.2,9.6,0
	c1.3,0.3,11.5,3,12.9,11.5c0.2,0.9,0.3,1.7,0.4,2.4c0.1-0.8,0.2-1.6,0.3-2.4c1.4-8.4,11.3-11.2,12.6-11.5c2.8,2.2,6.8,2.2,9.6,0
	c1.3,0.3,11.5,3,12.9,11.5c0.2,0.8,0.3,1.6,0.3,2.3c0.1-0.7,0.2-1.5,0.3-2.3c1.4-8.4,11.3-11.2,12.6-11.5c2.8,2.2,6.8,2.2,9.6,0
	c1.3,0.3,11.4,3,12.8,11.5C683.5,66.2,683,69.1,681.3,69.8z M717.1,69.8c-1.5,0.6-6-0.8-7.5-1.4c-1.3-0.3-2.6-1.5-2.6-2.8v-0.1
	c0-1.6,1.9-2.5,3.4-2.5h0.1c0.3,0,0.4-0.3,0.4-0.2v-4.7c0,0-6,0.1-10,2.7V70h-0.6l-0.2-9.2c-4.1-2.7-10.2-2.7-10.2-2.7v4.7
	c0-0.1,1,0.2,1.3,0.2h0.1c1.6,0,2.5,0.9,2.5,2.5v0.1c0,1.1-0.4,2.1-1.3,3.3h0c-0.2,0-0.4-0.2-0.6-0.2c-1.6,0.6-5.9,1.7-7.3,1.1
	c-1.8-0.7-2-3.7-1.3-7.2c1.4-8.4,11.3-11.2,12.6-11.5c2.8,2.2,6.8,2.2,9.6,0c1.3,0.3,11.4,3,12.8,11.5
	C719.3,66.2,718.9,69.1,717.1,69.8z M752.9,69.8c-1.5,0.6-5.9-0.8-7.5-1.4c-1.3-0.3-2.5-1.5-2.5-2.8v-0.1c0-1.6,1.7-2.5,3.2-2.5h0.1
	c0.3,0,0.6-0.3,0.6-0.2v-4.7c0,0-5.8,0-9.9,2.7l0.2,9.2h-1.2l0-9.2c-4.1-2.7-10.1-2.7-10.1-2.7v4.7c0-0.1,0.8,0.2,1.1,0.2h0.1
	c1.6,0,2.8,0.9,2.8,2.5v0.1c0,1.1-0.6,2.1-1.5,3.3h0c-0.2,0-0.4-0.2-0.6-0.2c-1.6,0.6-5.9,1.7-7.3,1.1c-1.8-0.7-2-3.7-1.3-7.2
	c1.4-8.4,11.3-11.2,12.6-11.5c2.8,2.2,6.8,2.2,9.6,0c1.3,0.3,11.4,3,12.8,11.5C755.1,66.2,754.7,69.1,752.9,69.8z M896,69.8
	c-1.5,0.6-5.9-0.8-7.5-1.4c-1.3-0.3-2.5-1.5-2.5-2.8v-0.1c0-1.6,1.8-2.5,3.4-2.5h0.1c0.3,0,0.5-0.3,0.5-0.2v-4.7c0,0-5.7,0-9.8,2.7
	l0.3,9.2h-1.2l-0.1-9.2c-4.1-2.7-10.2-2.7-10.2-2.7v4.7c0-0.1,0.9,0.2,1.3,0.2h0.1c1.6,0,2.6,0.9,2.6,2.5v0.1c0,1.1-0.4,2.1-1.4,3.3
	h0c-0.2,0-0.4-0.2-0.6-0.2c-1.6,0.6-5.9,1.7-7.3,1.1c-1-0.4-1.5-1.6-1.6-3.1c-0.1,1.6-0.7,2.7-1.7,3.1c-1.5,0.6-5.8-0.8-7.3-1.4
	c-1.3-0.3-2.1-1.5-2.1-2.8v-0.1c0-1.6,1-2.5,2.6-2.5h0.1c0.3,0,0-0.3,1.3-0.2v-4.7c0,0-6.1,0-10.2,2.7l-0.1,9.2h-1.2l-0.2-9.2
	c-4.1-2.7-10.3-2.7-10.3-2.7v4.7c0-0.1,1.1,0.2,1.5,0.2h0.1c1.6,0,2.4,0.9,2.4,2.5v0.1c0,1.1-0.2,2.1-1.2,3.3h0
	c-0.2,0-0.4-0.2-0.6-0.2c-1.6,0.6-5.9,1.7-7.3,1.1c-1-0.4-1.5-1.7-1.6-3.3c-0.1,1.7-0.7,2.9-1.7,3.3c-1.5,0.6-5.8-0.8-7.4-1.4
	c-1.3-0.3-2.2-1.5-2.2-2.8v-0.1c0-1.6,1.2-2.5,2.8-2.5h0.1c0.3,0,1.1-0.3,1.1-0.2v-4.7c0,0-6,0-10.1,2.7l0,9.2h-1.2l-0.3-9.2
	c-4.1-2.7-10.4-2.7-10.4-2.7v4.7c1-0.1,1.3,0.2,1.7,0.2h0.1c1.6,0,2.2,0.9,2.2,2.5v0.1c0,1.1,0,2.1-0.9,3.3h0
	c-0.2,0-0.4-0.2-0.6-0.2c-1.6,0.6-5.9,1.7-7.3,1.1c-1.1-0.4-1.6-1.8-1.7-3.5c-0.1,1.8-0.7,3-1.7,3.5c-1.5,0.6-5.9-0.8-7.4-1.4
	c-1.3-0.3-2.3-1.5-2.3-2.8v-0.1c0-1.6,1.4-2.5,3-2.5h0.1c0.3,0,0.9-0.3,0.9-0.2v-4.7c0,0-5.9,0-10,2.7l0.1,9.2h-1.2l-0.4-9.2
	c-4.1-2.7-10.5-2.7-10.5-2.7v4.7c1-0.1,1.6,0.2,1.9,0.2h0.1c1.6,0,3,0.9,3,2.5v0.1c0,1.1-0.8,2.1-1.7,3.3h0c-0.2,0-0.4-0.2-0.6-0.2
	c-1.6,0.6-5.9,1.7-7.3,1.1c-1.8-0.7-2-3.7-1.3-7.2c1.4-8.4,11.3-11.2,12.6-11.5c2.8,2.2,6.8,2.2,9.6,0c1.3,0.3,11.4,3,12.9,11.5
	c0.3,1.1,0.4,2.2,0.4,3.2c0-1,0.1-2,0.4-3.2c1.4-8.4,11.3-11.2,12.6-11.5c2.8,2.2,6.8,2.2,9.6,0c1.3,0.3,11.5,3,12.9,11.5
	c0.2,0.9,0.3,1.7,0.4,2.4c0.1-0.8,0.2-1.6,0.3-2.4c1.4-8.4,11.3-11.2,12.6-11.5c2.8,2.2,6.8,2.2,9.6,0c1.3,0.3,11.5,3,12.9,11.5
	c0.2,0.8,0.3,1.6,0.3,2.3c0.1-0.7,0.2-1.5,0.3-2.3c1.4-8.4,11.3-11.2,12.6-11.5c2.8,2.2,6.8,2.2,9.6,0c1.3,0.3,11.4,3,12.8,11.5
	C898.3,66.2,897.7,69.1,896,69.8z"/>
</svg>
